<svg width="49" height="49" viewBox="0 0 49 49" fill="none" xmlns="http://www.w3.org/2000/svg">
<circle cx="24.5" cy="24.5" r="22.5" stroke="#EFBA54" stroke-width="4"/>
<path d="M38.0111 14.4179C36.2532 12.6594 33.9226 11.5903 31.4431 11.405C28.9635 11.2196 26.4998 11.9303 24.5 13.4078C22.3933 11.8409 19.7711 11.1303 17.1615 11.4193C14.5518 11.7083 12.1486 12.9753 10.4358 14.9652C8.72293 16.9552 7.82768 19.5202 7.9303 22.1437C8.03293 24.7673 9.1258 27.2546 10.9889 29.1046L23.3244 41.4402C23.4783 41.5953 23.6615 41.7185 23.8632 41.8026C24.065 41.8866 24.2814 41.9299 24.5 41.9299C24.7186 41.9299 24.935 41.8866 25.1368 41.8026C25.3385 41.7185 25.5217 41.5953 25.6756 41.4402L38.0111 29.1046C38.9759 28.1405 39.7412 26.9957 40.2634 25.7357C40.7855 24.4757 41.0543 23.1251 41.0543 21.7612C41.0543 20.3973 40.7855 19.0468 40.2634 17.7868C39.7412 16.5267 38.9759 15.382 38.0111 14.4179V14.4179ZM35.6765 26.77L24.5 37.9299L13.3235 26.77C12.3386 25.781 11.6677 24.5231 11.3949 23.1543C11.1221 21.7855 11.2596 20.3665 11.7902 19.0755C12.3207 17.7846 13.2207 16.679 14.3771 15.8975C15.5336 15.116 16.8951 14.6934 18.2908 14.6828C20.1554 14.6873 21.942 15.4317 23.2582 16.7525C23.4121 16.9077 23.5952 17.0309 23.797 17.1149C23.9988 17.199 24.2152 17.2423 24.4338 17.2423C24.6524 17.2423 24.8688 17.199 25.0705 17.1149C25.2723 17.0309 25.4554 16.9077 25.6094 16.7525C26.9643 15.5784 28.7148 14.9628 30.5064 15.0305C32.298 15.0982 33.997 15.8441 35.2596 17.1171C36.5221 18.3901 37.2538 20.0952 37.3066 21.8874C37.3594 23.6795 36.7294 25.4248 35.544 26.77H35.6765Z" fill="#EFBA54"/>
<rect x="23.0597" y="19.0498" width="2.80523" height="14.5872" fill="#EFBA54"/>
<rect x="20.2545" y="24.6604" width="2.80523" height="8.41569" transform="rotate(-90 20.2545 24.6604)" fill="#EFBA54"/>
</svg>
