<svg width="87" height="87" viewBox="0 0 87 87" fill="none" xmlns="http://www.w3.org/2000/svg">
<path d="M73.08 16.7113C69.2314 12.8616 64.1289 10.521 58.7004 10.1152C53.272 9.70939 47.8782 11.2653 43.5 14.5001C38.8878 11.0695 33.147 9.51391 27.4337 10.1466C21.7205 10.7792 16.4591 13.5531 12.7092 17.9097C8.95921 22.2662 6.99923 27.8818 7.2239 33.6256C7.44858 39.3694 9.84121 44.8147 13.92 48.8651L40.9263 75.8713C41.2632 76.2111 41.6642 76.4807 42.1059 76.6648C42.5477 76.8488 43.0215 76.9436 43.5 76.9436C43.9785 76.9436 44.4524 76.8488 44.8941 76.6648C45.3358 76.4807 45.7368 76.2111 46.0738 75.8713L73.08 48.8651C75.1921 46.7543 76.8676 44.2481 78.0108 41.4895C79.1539 38.731 79.7423 35.7742 79.7423 32.7882C79.7423 29.8022 79.1539 26.8454 78.0108 24.0869C76.8676 21.3283 75.1921 18.8221 73.08 16.7113V16.7113ZM67.9688 43.7538L43.5 68.1863L19.0312 43.7538C16.875 41.5886 15.4062 38.8349 14.809 35.838C14.2118 32.8412 14.5128 29.7348 15.6743 26.9084C16.8358 24.082 18.8061 21.6616 21.338 19.9507C23.8699 18.2398 26.8506 17.3147 29.9062 17.2913C33.9884 17.3013 37.8997 18.931 40.7813 21.8226C41.1182 22.1623 41.5192 22.432 41.9609 22.616C42.4027 22.8001 42.8765 22.8948 43.355 22.8948C43.8335 22.8948 44.3074 22.8001 44.7491 22.616C45.1908 22.432 45.5918 22.1623 45.9288 21.8226C48.8952 19.252 52.7274 17.9045 56.6498 18.0526C60.5723 18.2008 64.2919 19.8337 67.0559 22.6207C69.8199 25.4078 71.4219 29.1408 71.5375 33.0644C71.6531 36.9879 70.2738 40.8088 67.6788 43.7538H67.9688Z" fill="#141414"/>
</svg>
